<svg xmlns="http://www.w3.org/2000/svg" xmlns:xlink="http://www.w3.org/1999/xlink" width="500" zoomAndPan="magnify" viewBox="0 0 375 374.999991" height="500" preserveAspectRatio="xMidYMid meet" version="1.0"><defs><clipPath id="cf4140075d"><path d="M 17.535156 78 L 349.785156 78 L 349.785156 258 L 17.535156 258 Z M 17.535156 78 " clip-rule="nonzero"/></clipPath></defs><rect x="-37.5" width="450" fill="#ffffff" y="-37.499999" height="449.999989" fill-opacity="1"/><rect x="-37.5" width="450" fill="#10092b" y="-37.499999" height="449.999989" fill-opacity="1"/><path fill="#2036b3" d="M 235.109375 194.074219 C 237.425781 190.078125 237.636719 184.964844 235.109375 180.621094 L 223.398438 160.375 L 211.683594 180.621094 C 209.160156 184.894531 209.367188 190.078125 211.683594 194.074219 C 212.804688 196.035156 214.488281 197.785156 216.664062 198.976562 C 218.769531 200.167969 221.082031 200.796875 223.398438 200.726562 C 225.710938 200.726562 228.027344 200.167969 230.128906 198.976562 C 232.304688 197.785156 233.988281 196.105469 235.109375 194.074219 Z M 132.214844 142.09375 C 129.898438 146.085938 129.6875 151.199219 132.214844 155.542969 L 143.925781 175.789062 L 155.640625 155.542969 C 158.09375 151.269531 157.957031 146.085938 155.640625 142.09375 C 154.519531 140.132812 152.835938 138.378906 150.660156 137.1875 C 148.554688 135.996094 146.242188 135.367188 143.925781 135.4375 C 141.613281 135.4375 139.296875 135.996094 137.191406 137.1875 C 135.019531 138.378906 133.335938 140.0625 132.214844 142.09375 Z M 132.214844 142.09375 " fill-opacity="1" fill-rule="evenodd"/><g clip-path="url(#cf4140075d)"><path fill="#2f81ff" d="M 216.453125 172.566406 L 223.46875 160.445312 L 214 144.054688 L 214 143.984375 L 192.042969 106.085938 C 187.132812 97.609375 180.261719 90.535156 171.773438 85.628906 L 171 85.210938 C 162.726562 80.585938 153.394531 78.273438 143.855469 78.273438 C 134.316406 78.273438 124.988281 80.585938 116.640625 85.210938 L 116.011719 85.558594 C 107.382812 90.535156 100.578125 97.609375 95.667969 106.085938 L 73.714844 143.984375 L 73.714844 144.054688 L 42.710938 197.714844 C 38.996094 204.160156 41.238281 212.355469 47.691406 216.070312 C 54.144531 219.78125 62.351562 217.539062 66.070312 211.09375 L 97.421875 156.875 L 118.957031 119.605469 C 121.480469 115.191406 124.988281 111.480469 129.40625 108.957031 L 129.898438 108.675781 C 134.105469 106.367188 138.945312 105.316406 143.785156 105.316406 C 148.695312 105.316406 153.464844 106.367188 157.746094 108.675781 L 158.164062 108.886719 C 162.65625 111.480469 166.160156 115.191406 168.6875 119.605469 L 190.21875 156.875 L 211.402344 193.441406 C 209.4375 189.519531 209.367188 184.753906 211.753906 180.691406 Z M 150.871094 163.597656 L 155.570312 155.472656 C 157.957031 151.410156 157.886719 146.574219 155.921875 142.722656 L 177.105469 179.289062 L 198.636719 216.558594 C 201.164062 220.972656 204.667969 224.6875 209.160156 227.277344 L 209.578125 227.488281 C 213.859375 229.871094 218.628906 230.851562 223.539062 230.851562 C 228.449219 230.851562 233.21875 229.800781 237.425781 227.488281 L 237.917969 227.207031 C 242.335938 224.6875 245.84375 220.972656 248.367188 216.558594 L 269.902344 179.289062 L 301.253906 125.070312 C 304.972656 118.625 313.179688 116.382812 319.632812 120.097656 C 326.085938 123.808594 328.328125 132.003906 324.613281 138.449219 L 293.609375 192.109375 L 293.609375 192.179688 L 271.726562 230.078125 C 266.816406 238.554688 259.941406 245.632812 251.382812 250.605469 L 250.753906 250.957031 C 242.40625 255.648438 233.078125 257.890625 223.539062 257.890625 C 214 257.890625 204.667969 255.578125 196.394531 250.957031 L 195.621094 250.535156 C 187.132812 245.632812 180.261719 238.554688 175.351562 230.078125 L 153.464844 192.179688 L 153.464844 192.109375 L 143.996094 175.71875 Z M 322.71875 91.722656 C 322.71875 99.078125 328.679688 105.035156 336.042969 105.035156 C 343.410156 105.035156 349.371094 99.078125 349.371094 91.722656 C 349.371094 84.367188 343.410156 78.414062 336.042969 78.414062 C 328.679688 78.34375 322.71875 84.367188 322.71875 91.722656 Z M 44.605469 244.441406 C 44.605469 237.085938 38.644531 231.128906 31.28125 231.128906 C 23.914062 231.128906 17.953125 237.085938 17.953125 244.441406 C 17.953125 251.796875 23.914062 257.75 31.28125 257.75 C 38.644531 257.75 44.605469 251.796875 44.605469 244.441406 Z M 44.605469 244.441406 " fill-opacity="1" fill-rule="evenodd"/></g><path fill="#fe4eee" d="M 143.855469 175.71875 L 132.144531 155.472656 C 129.617188 151.199219 129.828125 146.015625 132.144531 142.023438 L 94.125 207.734375 L 76.800781 237.855469 C 73.082031 244.300781 75.257812 252.566406 81.710938 256.28125 C 88.164062 259.992188 96.441406 257.820312 100.160156 251.375 L 117.414062 221.601562 Z M 223.46875 160.445312 L 235.179688 180.691406 C 237.707031 184.964844 237.496094 190.148438 235.179688 194.140625 L 273.199219 128.433594 L 290.59375 98.378906 C 294.308594 91.933594 292.136719 83.667969 285.683594 79.957031 C 279.230469 76.242188 270.953125 78.414062 267.234375 84.859375 L 249.980469 114.632812 Z M 223.46875 160.445312 " fill-opacity="1" fill-rule="evenodd"/></svg>