<svg xmlns="http://www.w3.org/2000/svg" xmlns:xlink="http://www.w3.org/1999/xlink" width="200" zoomAndPan="magnify" viewBox="0 0 150 60" height="80" preserveAspectRatio="xMidYMid meet" version="1.0"><defs><g/><clipPath id="83f4fb9d50"><path d="M 0 12.148438 L 56 12.148438 L 56 43 L 0 43 Z M 0 12.148438 " clip-rule="nonzero"/></clipPath><clipPath id="0c993da9ec"><path d="M 9 12.148438 L 47 12.148438 L 47 43 L 9 43 Z M 9 12.148438 " clip-rule="nonzero"/></clipPath></defs><rect x="-15" width="180" fill="#ffffff" y="-6" height="72" fill-opacity="1"/><rect x="-15" width="180" fill="#ffffff" y="-6" height="72" fill-opacity="1"/><path fill="#2036b3" d="M 36.675781 32.035156 C 37.066406 31.359375 37.101562 30.5 36.675781 29.765625 L 34.703125 26.347656 L 32.726562 29.765625 C 32.300781 30.484375 32.335938 31.359375 32.726562 32.035156 C 32.917969 32.367188 33.199219 32.660156 33.566406 32.863281 C 33.921875 33.0625 34.3125 33.167969 34.703125 33.15625 C 35.089844 33.15625 35.480469 33.0625 35.835938 32.863281 C 36.203125 32.660156 36.488281 32.378906 36.675781 32.035156 Z M 19.332031 23.261719 C 18.941406 23.9375 18.90625 24.800781 19.332031 25.53125 L 21.308594 28.949219 L 23.28125 25.53125 C 23.695312 24.8125 23.671875 23.9375 23.28125 23.261719 C 23.09375 22.933594 22.808594 22.636719 22.441406 22.433594 C 22.085938 22.234375 21.695312 22.128906 21.308594 22.140625 C 20.917969 22.140625 20.527344 22.234375 20.171875 22.433594 C 19.804688 22.636719 19.523438 22.921875 19.332031 23.261719 Z M 19.332031 23.261719 " fill-opacity="1" fill-rule="evenodd"/><g clip-path="url(#83f4fb9d50)"><path fill="#2f81ff" d="M 33.53125 28.40625 L 34.714844 26.359375 L 33.117188 23.59375 L 33.117188 23.582031 L 29.417969 17.1875 C 28.589844 15.753906 27.429688 14.5625 26 13.734375 L 25.871094 13.664062 C 24.476562 12.882812 22.902344 12.492188 21.296875 12.492188 C 19.6875 12.492188 18.113281 12.882812 16.707031 13.664062 L 16.601562 13.722656 C 15.148438 14.5625 14 15.753906 13.171875 17.1875 L 9.472656 23.582031 L 9.472656 23.59375 L 4.246094 32.648438 C 3.621094 33.738281 4 35.121094 5.085938 35.746094 C 6.175781 36.375 7.558594 35.996094 8.183594 34.90625 L 13.46875 25.757812 L 17.097656 19.46875 C 17.523438 18.722656 18.113281 18.097656 18.859375 17.671875 L 18.941406 17.625 C 19.652344 17.234375 20.46875 17.054688 21.28125 17.054688 C 22.109375 17.054688 22.914062 17.234375 23.636719 17.625 L 23.707031 17.660156 C 24.464844 18.097656 25.054688 18.722656 25.480469 19.46875 L 29.109375 25.757812 L 32.679688 31.929688 C 32.347656 31.265625 32.335938 30.460938 32.738281 29.777344 Z M 22.476562 26.890625 L 23.269531 25.519531 C 23.671875 24.835938 23.660156 24.019531 23.328125 23.371094 L 26.898438 29.539062 L 30.527344 35.828125 C 30.953125 36.574219 31.542969 37.203125 32.300781 37.640625 L 32.371094 37.675781 C 33.09375 38.074219 33.898438 38.242188 34.726562 38.242188 C 35.550781 38.242188 36.355469 38.0625 37.066406 37.675781 L 37.148438 37.625 C 37.894531 37.203125 38.484375 36.574219 38.910156 35.828125 L 42.539062 29.539062 L 47.824219 20.390625 C 48.449219 19.300781 49.832031 18.925781 50.921875 19.550781 C 52.007812 20.175781 52.386719 21.558594 51.761719 22.648438 L 46.535156 31.703125 L 46.535156 31.714844 L 42.847656 38.113281 C 42.019531 39.542969 40.859375 40.734375 39.417969 41.574219 L 39.3125 41.632812 C 37.90625 42.425781 36.332031 42.804688 34.726562 42.804688 C 33.117188 42.804688 31.542969 42.414062 30.148438 41.632812 L 30.019531 41.5625 C 28.589844 40.734375 27.429688 39.542969 26.601562 38.113281 L 22.914062 31.714844 L 22.914062 31.703125 L 21.320312 28.9375 Z M 51.441406 14.761719 C 51.441406 16.003906 52.445312 17.007812 53.6875 17.007812 C 54.929688 17.007812 55.933594 16.003906 55.933594 14.761719 C 55.933594 13.519531 54.929688 12.515625 53.6875 12.515625 C 52.445312 12.503906 51.441406 13.519531 51.441406 14.761719 Z M 4.566406 40.535156 C 4.566406 39.292969 3.5625 38.289062 2.320312 38.289062 C 1.078125 38.289062 0.0742188 39.292969 0.0742188 40.535156 C 0.0742188 41.777344 1.078125 42.78125 2.320312 42.78125 C 3.5625 42.78125 4.566406 41.777344 4.566406 40.535156 Z M 4.566406 40.535156 " fill-opacity="1" fill-rule="evenodd"/></g><g clip-path="url(#0c993da9ec)"><path fill="#643fbd" d="M 21.296875 28.9375 L 19.320312 25.519531 C 18.894531 24.800781 18.929688 23.925781 19.320312 23.25 L 12.914062 34.339844 L 9.992188 39.425781 C 9.367188 40.511719 9.734375 41.90625 10.820312 42.53125 C 11.90625 43.160156 13.304688 42.792969 13.929688 41.707031 L 16.839844 36.679688 Z M 34.714844 26.359375 L 36.6875 29.777344 C 37.113281 30.5 37.078125 31.371094 36.6875 32.046875 L 43.09375 20.957031 L 46.027344 15.886719 C 46.652344 14.796875 46.289062 13.402344 45.199219 12.777344 C 44.113281 12.148438 42.71875 12.515625 42.089844 13.605469 L 39.183594 18.628906 Z M 34.714844 26.359375 " fill-opacity="1" fill-rule="evenodd"/></g><g fill="#2f81ff" fill-opacity="1"><g transform="translate(63.083889, 36.906619)"><g><path d="M 2.859375 -17.21875 L 0.640625 -17.21875 L 0.640625 -0.640625 L 3.328125 -0.640625 L 3.328125 -11.359375 C 3.328125 -11.390625 3.332031 -11.429688 3.34375 -11.484375 C 3.375 -11.523438 3.40625 -11.550781 3.4375 -11.5625 C 3.46875 -11.582031 3.488281 -11.597656 3.5 -11.609375 C 3.519531 -11.628906 3.535156 -11.640625 3.546875 -11.640625 L 3.6875 -11.640625 C 3.71875 -11.640625 3.753906 -11.625 3.796875 -11.59375 C 3.835938 -11.570312 3.867188 -11.539062 3.890625 -11.5 L 3.9375 -11.484375 L 8.890625 -2.015625 L 9.25 -1.453125 C 9.40625 -1.179688 9.59375 -0.976562 9.8125 -0.84375 C 10.039062 -0.707031 10.410156 -0.640625 10.921875 -0.640625 L 12.03125 -0.640625 C 12.238281 -0.640625 12.34375 -0.53125 12.34375 -0.3125 C 12.34375 -0.101562 12.238281 0 12.03125 0 L 10.921875 0 C 10.378906 0 9.929688 -0.0820312 9.578125 -0.25 C 9.234375 -0.425781 8.9375 -0.710938 8.6875 -1.109375 L 8.328125 -1.65625 L 8.328125 -1.671875 L 3.96875 -10.03125 L 3.96875 -0.3125 C 3.96875 -0.101562 3.859375 0 3.640625 0 L 0.3125 0 C 0.21875 0 0.144531 -0.03125 0.09375 -0.09375 C 0.03125 -0.144531 0 -0.21875 0 -0.3125 L 0 -17.546875 C 0 -17.753906 0.101562 -17.859375 0.3125 -17.859375 L 2.859375 -17.859375 C 3.441406 -17.859375 3.882812 -17.738281 4.1875 -17.5 C 4.488281 -17.257812 4.757812 -16.941406 5 -16.546875 L 11.71875 -4.375 L 11.71875 -17.21875 L 8.9375 -17.21875 L 8.9375 -13.46875 C 8.9375 -13.257812 8.832031 -13.15625 8.625 -13.15625 C 8.394531 -13.15625 8.28125 -13.257812 8.28125 -13.46875 L 8.28125 -17.546875 C 8.28125 -17.753906 8.394531 -17.859375 8.625 -17.859375 L 12.03125 -17.859375 C 12.238281 -17.859375 12.34375 -17.753906 12.34375 -17.546875 L 12.34375 -3.078125 C 12.34375 -3.046875 12.328125 -3.007812 12.296875 -2.96875 C 12.285156 -2.925781 12.257812 -2.894531 12.21875 -2.875 C 12.195312 -2.863281 12.175781 -2.847656 12.15625 -2.828125 C 12.144531 -2.816406 12.128906 -2.8125 12.109375 -2.8125 L 12.015625 -2.8125 C 11.972656 -2.8125 11.925781 -2.828125 11.875 -2.859375 C 11.820312 -2.890625 11.785156 -2.921875 11.765625 -2.953125 L 11.75 -2.984375 L 4.4375 -16.234375 C 4.25 -16.585938 4.046875 -16.835938 3.828125 -16.984375 C 3.609375 -17.140625 3.285156 -17.21875 2.859375 -17.21875 Z M 2.859375 -17.21875 "/></g></g></g><g fill="#2f81ff" fill-opacity="1"><g transform="translate(77.636048, 36.906619)"><g><path d="M 8.703125 0 L 0.3125 0 C 0.101562 0 0 -0.101562 0 -0.3125 L 0 -6.03125 C 0 -6.550781 0.179688 -7 0.546875 -7.375 C 0.921875 -7.757812 1.378906 -7.957031 1.921875 -7.96875 L 7.21875 -7.96875 L 7.21875 -10.203125 L 3.640625 -10.203125 C 3.429688 -10.203125 3.328125 -10.304688 3.328125 -10.515625 L 3.328125 -14.515625 C 3.328125 -14.734375 3.429688 -14.84375 3.640625 -14.84375 L 8.390625 -14.84375 L 8.390625 -17.21875 L 0.640625 -17.21875 L 0.640625 -9 C 0.640625 -8.800781 0.53125 -8.703125 0.3125 -8.703125 C 0.101562 -8.703125 0 -8.800781 0 -9 L 0 -17.546875 C 0 -17.753906 0.101562 -17.859375 0.3125 -17.859375 L 8.703125 -17.859375 C 8.929688 -17.859375 9.046875 -17.753906 9.046875 -17.546875 L 9.046875 -14.515625 C 9.046875 -14.304688 8.929688 -14.203125 8.703125 -14.203125 L 3.96875 -14.203125 L 3.96875 -10.84375 L 7.53125 -10.84375 C 7.738281 -10.84375 7.84375 -10.734375 7.84375 -10.515625 L 7.84375 -7.640625 C 7.84375 -7.441406 7.738281 -7.34375 7.53125 -7.34375 L 2.015625 -7.34375 C 1.617188 -7.34375 1.289062 -7.207031 1.03125 -6.9375 C 0.769531 -6.675781 0.640625 -6.363281 0.640625 -6 L 0.640625 -0.640625 L 8.390625 -0.640625 L 8.390625 -3.015625 L 3.640625 -3.015625 C 3.429688 -3.015625 3.328125 -3.125 3.328125 -3.34375 L 3.328125 -5.5625 C 3.328125 -5.769531 3.429688 -5.875 3.640625 -5.875 C 3.859375 -5.875 3.96875 -5.769531 3.96875 -5.5625 L 3.96875 -3.65625 L 8.703125 -3.65625 C 8.929688 -3.65625 9.046875 -3.550781 9.046875 -3.34375 L 9.046875 -0.3125 C 9.046875 -0.101562 8.929688 0 8.703125 0 Z M 8.703125 0 "/></g></g></g><g fill="#2f81ff" fill-opacity="1"><g transform="translate(88.884955, 36.906619)"><g><path d="M 6.75 0.265625 L 6.703125 0.265625 C 6.160156 0.265625 5.710938 0.175781 5.359375 0 C 5.015625 -0.175781 4.75 -0.398438 4.5625 -0.671875 C 4.375 -0.941406 4.234375 -1.207031 4.140625 -1.46875 C 4.054688 -1.738281 3.992188 -1.960938 3.953125 -2.140625 L 3.9375 -2.28125 C 3.851562 -2.625 3.796875 -3.109375 3.765625 -3.734375 C 3.742188 -4.367188 3.734375 -5.039062 3.734375 -5.75 C 3.734375 -6.46875 3.738281 -7.117188 3.75 -7.703125 L 3.75 -8.6875 C 3.75 -9.875 3.765625 -10.898438 3.796875 -11.765625 C 3.835938 -12.628906 3.941406 -13.273438 4.109375 -13.703125 C 4.410156 -14.597656 4.894531 -15.046875 5.5625 -15.046875 C 5.976562 -15.046875 6.304688 -14.941406 6.546875 -14.734375 C 6.785156 -14.523438 6.984375 -14.175781 7.140625 -13.6875 C 7.242188 -13.332031 7.316406 -12.863281 7.359375 -12.28125 C 7.410156 -11.695312 7.4375 -11.109375 7.4375 -10.515625 C 7.445312 -9.921875 7.453125 -9.429688 7.453125 -9.046875 C 7.453125 -8.910156 7.453125 -8.65625 7.453125 -8.28125 C 7.453125 -7.90625 7.445312 -7.476562 7.4375 -7 C 7.4375 -6.53125 7.421875 -6.070312 7.390625 -5.625 C 7.359375 -5.175781 7.320312 -4.804688 7.28125 -4.515625 C 7.21875 -4.203125 7.125 -3.890625 7 -3.578125 C 6.882812 -3.265625 6.671875 -3.023438 6.359375 -2.859375 C 6.171875 -2.765625 6.03125 -2.816406 5.9375 -3.015625 C 5.851562 -3.222656 5.898438 -3.363281 6.078125 -3.4375 C 6.359375 -3.582031 6.539062 -3.976562 6.625 -4.625 C 6.675781 -4.90625 6.710938 -5.273438 6.734375 -5.734375 C 6.765625 -6.203125 6.785156 -6.671875 6.796875 -7.140625 C 6.804688 -7.617188 6.8125 -8.03125 6.8125 -8.375 C 6.820312 -8.726562 6.828125 -8.953125 6.828125 -9.046875 C 6.828125 -9.390625 6.820312 -9.847656 6.8125 -10.421875 C 6.8125 -10.992188 6.785156 -11.566406 6.734375 -12.140625 C 6.691406 -12.710938 6.617188 -13.160156 6.515625 -13.484375 C 6.410156 -13.867188 6.285156 -14.113281 6.140625 -14.21875 C 5.992188 -14.320312 5.800781 -14.375 5.5625 -14.375 C 5.425781 -14.375 5.28125 -14.328125 5.125 -14.234375 C 4.976562 -14.140625 4.84375 -13.898438 4.71875 -13.515625 C 4.5625 -13.097656 4.460938 -12.441406 4.421875 -11.546875 C 4.390625 -10.648438 4.375 -9.695312 4.375 -8.6875 C 4.375 -8.550781 4.375 -8.398438 4.375 -8.234375 C 4.375 -8.078125 4.375 -7.898438 4.375 -7.703125 C 4.363281 -7.117188 4.359375 -6.476562 4.359375 -5.78125 C 4.359375 -5.082031 4.367188 -4.425781 4.390625 -3.8125 C 4.421875 -3.207031 4.476562 -2.738281 4.5625 -2.40625 L 4.59375 -2.296875 C 4.65625 -2.046875 4.742188 -1.769531 4.859375 -1.46875 C 4.972656 -1.175781 5.171875 -0.925781 5.453125 -0.71875 C 5.742188 -0.507812 6.175781 -0.40625 6.75 -0.40625 L 6.78125 -0.40625 C 7.4375 -0.40625 7.988281 -0.648438 8.4375 -1.140625 C 8.894531 -1.640625 9.257812 -2.300781 9.53125 -3.125 C 9.8125 -3.957031 10.015625 -4.859375 10.140625 -5.828125 C 10.273438 -6.804688 10.34375 -7.78125 10.34375 -8.75 C 10.34375 -11.71875 9.957031 -13.910156 9.1875 -15.328125 C 8.414062 -16.742188 7.226562 -17.453125 5.625 -17.453125 C 4 -17.453125 2.800781 -16.769531 2.03125 -15.40625 C 1.257812 -14.050781 0.875 -11.9375 0.875 -9.0625 C 0.875 -5.957031 1.304688 -3.628906 2.171875 -2.078125 C 2.191406 -2.046875 2.234375 -1.976562 2.296875 -1.875 C 2.359375 -1.78125 2.429688 -1.675781 2.515625 -1.5625 C 2.578125 -1.5 2.601562 -1.421875 2.59375 -1.328125 C 2.59375 -1.242188 2.5625 -1.171875 2.5 -1.109375 C 2.425781 -1.054688 2.34375 -1.03125 2.25 -1.03125 C 2.164062 -1.039062 2.097656 -1.078125 2.046875 -1.140625 C 1.929688 -1.285156 1.835938 -1.410156 1.765625 -1.515625 C 1.703125 -1.617188 1.65625 -1.691406 1.625 -1.734375 C 1.15625 -2.566406 0.800781 -3.578125 0.5625 -4.765625 C 0.332031 -5.960938 0.21875 -7.394531 0.21875 -9.0625 C 0.21875 -12.113281 0.664062 -14.382812 1.5625 -15.875 C 2.457031 -17.375 3.8125 -18.125 5.625 -18.125 C 6.59375 -18.125 7.394531 -17.929688 8.03125 -17.546875 C 8.675781 -17.160156 9.195312 -16.640625 9.59375 -15.984375 C 9.988281 -15.328125 10.285156 -14.59375 10.484375 -13.78125 C 10.679688 -12.976562 10.8125 -12.140625 10.875 -11.265625 C 10.945312 -10.390625 10.984375 -9.550781 10.984375 -8.75 C 10.984375 -7.664062 10.90625 -6.585938 10.75 -5.515625 C 10.601562 -4.441406 10.363281 -3.46875 10.03125 -2.59375 C 9.695312 -1.726562 9.257812 -1.035156 8.71875 -0.515625 C 8.1875 0.00390625 7.53125 0.265625 6.75 0.265625 Z M 6.75 0.265625 "/></g></g></g><g fill="#643fbd" fill-opacity="1"><g transform="translate(102.098022, 36.906619)"><g><path d="M 6.15625 0 L 2.90625 0 C 2.695312 0 2.59375 -0.101562 2.59375 -0.3125 L 2.59375 -12.234375 C 2.59375 -12.441406 2.695312 -12.546875 2.90625 -12.546875 C 3.125 -12.546875 3.234375 -12.441406 3.234375 -12.234375 L 3.234375 -0.640625 L 5.84375 -0.640625 L 5.84375 -12.84375 C 5.84375 -13.394531 5.742188 -13.734375 5.546875 -13.859375 C 5.359375 -13.984375 5.109375 -14.046875 4.796875 -14.046875 L 0.3125 -14.046875 C 0.101562 -14.046875 0 -14.148438 0 -14.359375 L 0 -17.546875 C 0 -17.753906 0.101562 -17.859375 0.3125 -17.859375 L 8.8125 -17.859375 C 9.039062 -17.859375 9.15625 -17.753906 9.15625 -17.546875 L 9.15625 -14.296875 C 9.15625 -14.085938 9.039062 -13.984375 8.8125 -13.984375 L 8 -13.984375 C 7.769531 -13.984375 7.65625 -14.085938 7.65625 -14.296875 C 7.65625 -14.503906 7.769531 -14.609375 8 -14.609375 L 8.5 -14.609375 L 8.5 -17.21875 L 0.640625 -17.21875 L 0.640625 -14.6875 L 4.796875 -14.6875 C 5.066406 -14.6875 5.328125 -14.644531 5.578125 -14.5625 C 5.835938 -14.488281 6.050781 -14.320312 6.21875 -14.0625 C 6.382812 -13.800781 6.46875 -13.394531 6.46875 -12.84375 L 6.46875 -0.3125 C 6.46875 -0.101562 6.363281 0 6.15625 0 Z M 6.15625 0 "/></g></g></g><g fill="#643fbd" fill-opacity="1"><g transform="translate(113.458529, 36.906619)"><g><path d="M 8.703125 0 L 0.3125 0 C 0.101562 0 0 -0.101562 0 -0.3125 L 0 -6.03125 C 0 -6.550781 0.179688 -7 0.546875 -7.375 C 0.921875 -7.757812 1.378906 -7.957031 1.921875 -7.96875 L 7.21875 -7.96875 L 7.21875 -10.203125 L 3.640625 -10.203125 C 3.429688 -10.203125 3.328125 -10.304688 3.328125 -10.515625 L 3.328125 -14.515625 C 3.328125 -14.734375 3.429688 -14.84375 3.640625 -14.84375 L 8.390625 -14.84375 L 8.390625 -17.21875 L 0.640625 -17.21875 L 0.640625 -9 C 0.640625 -8.800781 0.53125 -8.703125 0.3125 -8.703125 C 0.101562 -8.703125 0 -8.800781 0 -9 L 0 -17.546875 C 0 -17.753906 0.101562 -17.859375 0.3125 -17.859375 L 8.703125 -17.859375 C 8.929688 -17.859375 9.046875 -17.753906 9.046875 -17.546875 L 9.046875 -14.515625 C 9.046875 -14.304688 8.929688 -14.203125 8.703125 -14.203125 L 3.96875 -14.203125 L 3.96875 -10.84375 L 7.53125 -10.84375 C 7.738281 -10.84375 7.84375 -10.734375 7.84375 -10.515625 L 7.84375 -7.640625 C 7.84375 -7.441406 7.738281 -7.34375 7.53125 -7.34375 L 2.015625 -7.34375 C 1.617188 -7.34375 1.289062 -7.207031 1.03125 -6.9375 C 0.769531 -6.675781 0.640625 -6.363281 0.640625 -6 L 0.640625 -0.640625 L 8.390625 -0.640625 L 8.390625 -3.015625 L 3.640625 -3.015625 C 3.429688 -3.015625 3.328125 -3.125 3.328125 -3.34375 L 3.328125 -5.5625 C 3.328125 -5.769531 3.429688 -5.875 3.640625 -5.875 C 3.859375 -5.875 3.96875 -5.769531 3.96875 -5.5625 L 3.96875 -3.65625 L 8.703125 -3.65625 C 8.929688 -3.65625 9.046875 -3.550781 9.046875 -3.34375 L 9.046875 -0.3125 C 9.046875 -0.101562 8.929688 0 8.703125 0 Z M 8.703125 0 "/></g></g></g><g fill="#643fbd" fill-opacity="1"><g transform="translate(124.707436, 36.906619)"><g><path d="M 6.296875 0.265625 C 5.390625 0.265625 4.675781 -0.203125 4.15625 -1.140625 C 3.976562 -1.453125 3.847656 -1.925781 3.765625 -2.5625 C 3.679688 -3.207031 3.628906 -3.90625 3.609375 -4.65625 C 3.585938 -5.40625 3.578125 -6.109375 3.578125 -6.765625 L 3.578125 -8.640625 C 3.578125 -9.171875 3.585938 -9.753906 3.609375 -10.390625 C 3.640625 -11.023438 3.6875 -11.632812 3.75 -12.21875 C 3.820312 -12.8125 3.925781 -13.300781 4.0625 -13.6875 C 4.238281 -14.175781 4.457031 -14.523438 4.71875 -14.734375 C 4.976562 -14.941406 5.316406 -15.046875 5.734375 -15.046875 L 5.765625 -15.046875 C 6.210938 -15.046875 6.539062 -14.851562 6.75 -14.46875 C 6.96875 -14.09375 7.101562 -13.609375 7.15625 -13.015625 C 7.21875 -12.421875 7.257812 -11.816406 7.28125 -11.203125 L 10.140625 -11.453125 C 9.828125 -15.453125 8.335938 -17.453125 5.671875 -17.453125 C 4.484375 -17.453125 3.507812 -17.066406 2.75 -16.296875 C 2.195312 -15.734375 1.773438 -15.023438 1.484375 -14.171875 C 1.191406 -13.316406 0.992188 -12.414062 0.890625 -11.46875 C 0.785156 -10.519531 0.734375 -9.632812 0.734375 -8.8125 C 0.734375 -5.289062 1.351562 -2.875 2.59375 -1.5625 C 2.644531 -1.488281 2.664062 -1.398438 2.65625 -1.296875 C 2.65625 -1.203125 2.625 -1.128906 2.5625 -1.078125 C 2.425781 -0.921875 2.28125 -0.925781 2.125 -1.09375 C 0.769531 -2.519531 0.09375 -5.09375 0.09375 -8.8125 C 0.09375 -9.675781 0.144531 -10.609375 0.25 -11.609375 C 0.363281 -12.609375 0.582031 -13.566406 0.90625 -14.484375 C 1.226562 -15.398438 1.691406 -16.171875 2.296875 -16.796875 C 3.171875 -17.679688 4.289062 -18.125 5.65625 -18.125 L 5.671875 -18.125 C 6.203125 -18.125 6.75 -18.023438 7.3125 -17.828125 C 7.882812 -17.640625 8.421875 -17.296875 8.921875 -16.796875 C 9.421875 -16.296875 9.835938 -15.59375 10.171875 -14.6875 C 10.503906 -13.78125 10.722656 -12.613281 10.828125 -11.1875 C 10.828125 -10.957031 10.722656 -10.835938 10.515625 -10.828125 L 7.015625 -10.515625 C 6.941406 -10.515625 6.859375 -10.546875 6.765625 -10.609375 C 6.691406 -10.660156 6.65625 -10.738281 6.65625 -10.84375 L 6.65625 -10.96875 C 6.632812 -11.457031 6.601562 -11.960938 6.5625 -12.484375 C 6.53125 -13.003906 6.453125 -13.445312 6.328125 -13.8125 C 6.203125 -14.1875 6.003906 -14.375 5.734375 -14.375 C 5.484375 -14.375 5.273438 -14.316406 5.109375 -14.203125 C 4.953125 -14.097656 4.804688 -13.859375 4.671875 -13.484375 C 4.566406 -13.171875 4.484375 -12.789062 4.421875 -12.34375 C 4.359375 -11.894531 4.3125 -11.425781 4.28125 -10.9375 C 4.257812 -10.445312 4.242188 -9.992188 4.234375 -9.578125 C 4.222656 -9.160156 4.21875 -8.84375 4.21875 -8.625 L 4.21875 -6.765625 C 4.21875 -5.554688 4.238281 -4.585938 4.28125 -3.859375 C 4.332031 -3.128906 4.394531 -2.582031 4.46875 -2.21875 C 4.539062 -1.851562 4.613281 -1.601562 4.6875 -1.46875 C 5.101562 -0.757812 5.640625 -0.40625 6.296875 -0.40625 L 6.3125 -0.40625 C 6.894531 -0.40625 7.394531 -0.539062 7.8125 -0.8125 C 8.226562 -1.09375 8.570312 -1.453125 8.84375 -1.890625 C 9.125 -2.335938 9.34375 -2.816406 9.5 -3.328125 C 9.664062 -3.835938 9.789062 -4.328125 9.875 -4.796875 C 9.957031 -5.273438 10.015625 -5.675781 10.046875 -6 L 7.25 -6.203125 L 7.25 -5.9375 C 7.238281 -5.59375 7.21875 -5.222656 7.1875 -4.828125 C 7.15625 -4.441406 7.078125 -4.070312 6.953125 -3.71875 C 6.828125 -3.363281 6.609375 -3.082031 6.296875 -2.875 C 6.234375 -2.820312 6.15625 -2.804688 6.0625 -2.828125 C 5.976562 -2.847656 5.90625 -2.894531 5.84375 -2.96875 C 5.726562 -3.144531 5.757812 -3.300781 5.9375 -3.4375 C 6.144531 -3.582031 6.289062 -3.796875 6.375 -4.078125 C 6.46875 -4.367188 6.53125 -4.679688 6.5625 -5.015625 C 6.59375 -5.347656 6.609375 -5.664062 6.609375 -5.96875 C 6.609375 -6.082031 6.609375 -6.191406 6.609375 -6.296875 C 6.609375 -6.398438 6.613281 -6.5 6.625 -6.59375 C 6.644531 -6.800781 6.757812 -6.90625 6.96875 -6.90625 L 10.40625 -6.625 C 10.59375 -6.625 10.6875 -6.507812 10.6875 -6.28125 C 10.675781 -5.976562 10.632812 -5.554688 10.5625 -5.015625 C 10.488281 -4.484375 10.359375 -3.914062 10.171875 -3.3125 C 9.992188 -2.707031 9.742188 -2.132812 9.421875 -1.59375 C 9.097656 -1.050781 8.679688 -0.601562 8.171875 -0.25 C 7.660156 0.09375 7.035156 0.265625 6.296875 0.265625 Z M 6.296875 0.265625 "/></g></g></g><g fill="#643fbd" fill-opacity="1"><g transform="translate(137.741886, 36.906619)"><g><path d="M 3.640625 0.015625 L 3.609375 0.015625 L 0.3125 0 C 0.101562 0 0 -0.101562 0 -0.3125 L 0 -17.53125 C 0 -17.738281 0.101562 -17.84375 0.3125 -17.84375 L 3.640625 -17.84375 C 3.847656 -17.84375 3.953125 -17.738281 3.953125 -17.53125 L 3.953125 -9.46875 C 3.953125 -8.875 4.023438 -8.472656 4.171875 -8.265625 C 4.328125 -8.066406 4.691406 -7.96875 5.265625 -7.96875 L 6.390625 -7.96875 C 6.609375 -7.96875 6.71875 -7.859375 6.71875 -7.640625 L 6.71875 -0.640625 L 9.375 -0.640625 L 9.375 -17.1875 L 6.71875 -17.1875 L 6.71875 -9.734375 C 6.71875 -9.523438 6.609375 -9.421875 6.390625 -9.421875 C 6.179688 -9.421875 6.078125 -9.523438 6.078125 -9.734375 L 6.078125 -17.53125 C 6.078125 -17.738281 6.179688 -17.84375 6.390625 -17.84375 L 9.6875 -17.84375 C 9.78125 -17.84375 9.863281 -17.8125 9.9375 -17.75 C 10.007812 -17.6875 10.046875 -17.613281 10.046875 -17.53125 L 10.046875 -0.3125 C 10.046875 -0.21875 10.007812 -0.140625 9.9375 -0.078125 C 9.863281 -0.0234375 9.78125 0 9.6875 0 L 6.390625 0 C 6.179688 0 6.078125 -0.101562 6.078125 -0.3125 L 6.078125 -7.328125 L 5.265625 -7.328125 C 4.453125 -7.328125 3.925781 -7.507812 3.6875 -7.875 C 3.445312 -8.238281 3.328125 -8.769531 3.328125 -9.46875 L 3.328125 -17.1875 L 0.640625 -17.1875 L 0.640625 -0.640625 L 3.328125 -0.625 L 3.328125 -5.96875 C 3.328125 -6.1875 3.429688 -6.296875 3.640625 -6.296875 C 3.847656 -6.296875 3.953125 -6.1875 3.953125 -5.96875 L 3.953125 -0.3125 C 3.953125 -0.207031 3.921875 -0.125 3.859375 -0.0625 C 3.804688 -0.0078125 3.734375 0.015625 3.640625 0.015625 Z M 3.640625 0.015625 "/></g></g></g></svg>